# xmcd
#
# Track frame offsets: 
#        150
#        16625
#        36272
#        53902
#        70542
#        95492
#        112720
#        131127
#        146065
#        160372
#
# Disc length: 2326 seconds
#
# Revision: 2
# Processed by: cddbd v1.5.2PL0 Copyright (c) Steve Scherf et al.
# Submitted via: ExactAudioCopyFreeDBPlugin 1.0
#
DISCID=7f09140a
DTITLE=Paul Banks - Time Problem
DYEAR=1998
DGENRE=Blues
TTITLE0=Muddy River
TTITLE1=Fly Away
TTITLE2=Hold On
TTITLE3=Time Problem
TTITLE4=The Upper Room
TTITLE5=Goodbye Fairmount Ave.
TTITLE6=Little Bird Of Paradise
TTITLE7=Crack In The Wall
TTITLE8=Regression Rag
TTITLE9=Little Sweetheart
EXTD=
EXTT0=
EXTT1=
EXTT2=
EXTT3=
EXTT4=
EXTT5=
EXTT6=
EXTT7=
EXTT8=
EXTT9=
PLAYORDER=
